<svg xmlns:inkscape="http://www.inkscape.org/namespaces/inkscape" xmlns:sodipodi="http://sodipodi.sourceforge.net/DTD/sodipodi-0.dtd" xmlns="http://www.w3.org/2000/svg" xmlns:svg="http://www.w3.org/2000/svg" x="0px" y="0px" viewBox="0 0 1586.8 341.5" xml:space="preserve" id="svg103" sodipodi:docname="bizforward-Logo-Clean-2024.svg" inkscape:version="1.2.2 (732a01da63, 2022-12-09)"><defs id="defs107"></defs><g id="BackGround">	<rect fill="#FFFFFF" width="1586.8" height="341.5" id="rect2"></rect></g><g id="BizForward" transform="matrix(1.0972587,0,0,1.0972587,-129.41485,14.767483)">	<path fill="#575656" d="m 393.5,55.4 v 41.7 h 40.7 c 3.4,0 7.2,0.2 11.3,0.7 4.1,0.5 8.1,1.5 12.1,2.9 4,1.5 7.9,3.6 11.5,6.4 3.7,2.8 6.9,6.5 9.7,11.3 2.1,3.4 3.8,7.1 4.9,11 1.1,3.9 2,7.8 2.6,11.8 0.6,3.9 0.9,7.8 1.1,11.7 0.2,3.8 0.2,7.5 0.2,10.9 0,2.9 -0.1,6.1 -0.2,9.6 -0.2,3.4 -0.5,7 -1.1,10.7 -0.6,3.7 -1.4,7.4 -2.6,11 -1.1,3.7 -2.7,7.2 -4.7,10.7 -2.8,4.7 -6,8.5 -9.7,11.3 -3.7,2.8 -7.5,4.9 -11.4,6.4 -3.9,1.5 -7.9,2.5 -11.8,2.9 -3.9,0.5 -7.7,0.7 -11.3,0.7 h -28 c -3.8,0 -7.5,-0.2 -11.2,-0.6 -3.7,-0.4 -6.7,-1.5 -9,-3.3 -2.8,-2.3 -4.5,-5 -5.1,-8.2 -0.7,-3.2 -1,-5.9 -1,-8.2 V 55.4 Z m 0,150.2 c 0,1.3 0,2.7 0.1,4.2 0.1,1.5 0.5,2.7 1.3,3.7 0.8,1 2,1.6 3.6,1.8 1.6,0.2 2.9,0.4 4.1,0.4 h 29.7 c 2.5,0 5.3,-0.1 8.6,-0.4 3.3,-0.2 6.6,-0.9 9.9,-2.1 3.3,-1.1 6.6,-2.9 9.7,-5.2 3.1,-2.3 5.8,-5.5 8.1,-9.6 2.3,-4.1 3.8,-8.7 4.4,-13.9 0.7,-5.2 1,-10.8 1,-17.1 0,-3.1 -0.1,-6.5 -0.2,-10.3 -0.2,-3.8 -0.4,-7.5 -0.9,-11.2 -0.4,-3.7 -0.9,-7.2 -1.6,-10.4 -0.7,-3.3 -1.5,-6 -2.5,-8.3 -1.8,-4.1 -4.1,-7.4 -7,-9.9 -2.9,-2.5 -5.9,-4.4 -9.1,-5.6 -3.2,-1.2 -6.5,-2 -9.9,-2.5 -3.4,-0.4 -6.6,-0.6 -9.6,-0.6 h -39.7 z" id="path56"></path>	<path fill="#575656" d="M 517.4,73.6 V 55.4 h 13.7 v 18.2 z m 0.5,23.5 h 12.8 v 130 h -12.8 z" id="path58"></path>	<path fill="#575656" d="m 569.4,226.8 c -1.9,-0.2 -3.6,-0.7 -5.2,-1.5 -1.6,-0.7 -2.9,-1.8 -4.1,-3.3 -1.1,-1.5 -1.7,-3.4 -1.7,-5.9 0,-2.8 0.7,-5.4 2.2,-7.7 1.5,-2.4 2.9,-4.3 4.2,-5.8 l 75.1,-88.1 c 0.5,-0.7 1,-1.2 1.6,-1.7 0.6,-0.5 0.9,-1.1 0.9,-2 0,-1 -0.3,-1.6 -0.9,-1.8 -0.6,-0.2 -1.3,-0.4 -2.1,-0.4 H 562.1 V 97.1 h 83.2 c 3.6,0 6.3,1.1 8.1,3.4 1.8,2.3 2.7,4.7 2.7,7.1 0,1.5 -0.4,3.3 -1.1,5.4 -0.7,2.1 -1.6,3.8 -2.6,5.2 L 574.1,211 c -0.3,0.5 -0.7,1 -1.2,1.5 -0.5,0.5 -0.7,1.1 -0.7,2 0,0.8 0.2,1.2 0.7,1.2 0.5,0 1,0 1.5,0 h 82.4 v 11.5 h -82.4 c -1.5,0 -3.2,-0.2 -5,-0.4 z" id="path60"></path>	<path fill="#3dafe4" d="m 691.2,97.1 c 0,-2.1 0.1,-4.6 0.4,-7.4 0.2,-2.8 0.7,-5.6 1.5,-8.5 0.7,-2.9 1.8,-5.6 3.1,-8.3 1.3,-2.7 3.1,-5.2 5.4,-7.5 2.5,-2.4 5.2,-4.4 8.3,-5.9 3.1,-1.5 6.4,-2.7 9.8,-3.6 3.4,-0.9 6.8,-1.5 10.2,-1.7 3.3,-0.2 6.5,-0.4 9.4,-0.4 v 11.5 c -4.1,0 -8.8,0.4 -14.1,1.2 -5.3,0.8 -9.6,2.6 -12.9,5.4 -1.6,1.5 -3,3.2 -4,5.2 -1.1,2 -1.9,4.1 -2.6,6.4 -0.7,2.3 -1.1,4.6 -1.3,7 -0.2,2.4 -0.4,4.5 -0.4,6.5 h 35 v 11.5 H 703.9 V 227 H 691.1 V 108.7 H 674.2 V 97.1 Z" id="path62"></path>	<path fill="#3dafe4" d="m 754.8,149.3 c 0.3,-4.5 1.1,-9.1 2.2,-13.7 1.1,-4.7 2.8,-9.2 4.9,-13.7 2.1,-4.5 5,-8.5 8.6,-11.9 3.1,-3.1 6.6,-5.6 10.6,-7.5 3.9,-1.9 8,-3.3 12.1,-4.3 4.2,-1 8.4,-1.6 12.8,-2 4.3,-0.3 8.5,-0.5 12.6,-0.5 4.1,0 8.3,0.2 12.6,0.5 4.3,0.3 8.6,1 12.8,2 4.2,1 8.2,2.4 12,4.3 3.8,1.9 7.4,4.4 10.7,7.5 3.6,3.4 6.5,7.4 8.6,11.9 2.1,4.5 3.8,9.1 4.9,13.7 1.1,4.7 1.9,9.2 2.2,13.7 0.3,4.5 0.5,8.5 0.5,12.1 0,14.1 -1.7,25.3 -5,33.7 -3.4,8.4 -7.1,14.7 -11.2,18.8 -3.6,3.4 -7.6,6.1 -11.9,8.1 -4.3,2 -8.7,3.4 -13.1,4.4 -4.4,1 -8.6,1.6 -12.6,1.8 -4,0.2 -7.5,0.4 -10.4,0.4 -2.9,0 -6.4,-0.1 -10.4,-0.4 -4,-0.2 -8.2,-0.9 -12.6,-1.8 -4.4,-1 -8.8,-2.5 -13.1,-4.4 -4.3,-2 -8.3,-4.7 -11.9,-8.1 -4.3,-4.1 -8,-10.3 -11.3,-18.8 -3.3,-8.4 -4.9,-19.7 -4.9,-33.7 -0.2,-3.6 -0.1,-7.6 0.3,-12.1 z m 13.3,22.7 c 0.1,3.6 0.5,7.3 1.1,11.2 0.7,3.8 1.7,7.6 3.1,11.4 1.4,3.8 3.5,7.1 6.3,10.1 2.6,2.8 5.5,5 8.7,6.7 3.2,1.7 6.6,3 10.2,3.8 3.6,0.8 7.2,1.3 10.8,1.6 3.6,0.2 7,0.4 10.3,0.4 3.3,0 6.7,-0.1 10.3,-0.4 3.6,-0.2 7.2,-0.8 10.8,-1.6 3.6,-0.8 7,-2.1 10.2,-3.8 3.2,-1.7 6.1,-4 8.7,-6.7 2.6,-2.9 4.7,-6.3 6.1,-10.1 1.5,-3.8 2.5,-7.6 3.2,-11.4 0.7,-3.8 1,-7.6 1.1,-11.2 0.1,-3.6 0.1,-6.7 0.1,-9.3 0,-2.8 0,-6.1 -0.1,-9.9 -0.1,-3.8 -0.4,-7.8 -1.1,-11.8 -0.7,-4 -1.7,-7.9 -3.1,-11.7 -1.4,-3.8 -3.4,-7.1 -6,-10.1 -2.5,-2.8 -5.4,-4.9 -8.7,-6.5 -3.4,-1.6 -6.9,-2.7 -10.5,-3.6 -3.7,-0.8 -7.3,-1.3 -10.9,-1.6 -3.6,-0.2 -7,-0.4 -10.1,-0.4 -3.1,0 -6.5,0.1 -10.1,0.4 -3.6,0.2 -7.2,0.8 -10.9,1.6 -3.7,0.8 -7.2,2 -10.5,3.6 -3.4,1.6 -6.3,3.7 -8.7,6.5 -2.6,2.9 -4.6,6.3 -6,10.1 -1.4,3.8 -2.4,7.7 -3.1,11.7 -0.7,4 -1,7.9 -1.1,11.8 -0.1,3.8 -0.1,7.2 -0.1,9.9 -0.1,2.6 -0.1,5.7 0,9.3 z" id="path64"></path>	<path fill="#3dafe4" d="m 906.3,141.8 c 0,-6.7 0.7,-12.9 2.1,-18.5 1.4,-5.6 4.5,-10.8 9.4,-15.6 2.8,-2.6 6.6,-5 11.4,-7.2 4.8,-2.2 11.7,-3.3 20.5,-3.3 h 8.8 v 11.5 h -7.9 c -3.6,0 -7.8,0.5 -12.5,1.5 -4.7,1 -8.9,3.5 -12.5,7.6 -2.8,3.3 -4.6,7.3 -5.4,12 -0.8,4.7 -1.2,9.7 -1.2,15 v 82.4 h -12.8 v -85.4 z" id="path66"></path>	<path fill="#3dafe4" d="m 1011.9,211.9 c 0.3,0.8 0.7,1.7 1.1,2.6 0.4,0.9 0.9,1.3 1.6,1.3 0.8,0 1.4,-0.5 1.7,-1.6 0.3,-1.1 0.6,-1.8 0.7,-2.1 l 27.7,-105.7 c 1.3,-4.6 3.1,-7.5 5.4,-8.8 2.3,-1.3 4.4,-2 6.4,-2 2,0 4.1,0.7 6.4,2 2.3,1.3 4.1,4.3 5.4,8.8 l 27.7,105.7 c 0.2,0.3 0.4,1 0.7,2.1 0.3,1.1 0.9,1.6 1.7,1.6 0.7,0 1.2,-0.5 1.6,-1.3 0.4,-0.9 0.8,-1.8 1.1,-2.6 l 29.2,-114.8 h 12.8 l -31.9,120.7 c -0.8,2.8 -2.1,5.3 -3.8,7.5 -1.7,2.2 -4.6,3.3 -8.7,3.3 -2.5,0 -4.5,-0.4 -6,-1.2 -1.6,-0.8 -2.8,-1.8 -3.8,-2.9 -1,-1.1 -1.8,-2.3 -2.3,-3.6 -0.6,-1.2 -1,-2.3 -1.1,-3.3 l -27,-101.6 c -0.2,-0.8 -0.4,-1.8 -0.7,-2.8 -0.3,-1.1 -0.7,-1.6 -1.2,-1.6 -0.5,0 -0.9,0.5 -1.2,1.6 -0.3,1.1 -0.6,2 -0.7,2.8 l -27,101.6 c -0.3,1 -0.7,2.1 -1.2,3.3 -0.5,1.2 -1.2,2.4 -2.2,3.6 -1,1.1 -2.2,2.1 -3.8,2.9 -1.6,0.8 -3.6,1.2 -6,1.2 -4.1,0 -7,-1.1 -8.7,-3.3 -1.7,-2.2 -3,-4.7 -3.8,-7.5 L 970,97.1 h 12.8 z" id="path68"></path>	<path fill="#3dafe4" d="m 1231.8,97.1 c 4.4,0 8.7,0.8 12.7,2.5 4.1,1.6 7.4,3.8 10.1,6.6 3.4,3.8 5.6,8.1 6.5,12.9 0.9,4.8 1.3,9.2 1.3,13.1 V 210 c 0,1.8 -0.2,4 -0.6,6.6 -0.4,2.6 -1.7,4.9 -3.8,6.9 -2,1.8 -4.3,2.9 -7.1,3.2 -2.8,0.3 -5.3,0.5 -7.6,0.5 h -50.1 c -3.8,0 -7.7,-0.3 -11.9,-0.9 -4.2,-0.6 -8.1,-2.2 -11.7,-5 -2.8,-2.1 -4.9,-4.8 -6.4,-8 -1.5,-3.2 -2.6,-6.4 -3.4,-9.6 -0.8,-3.2 -1.3,-6.3 -1.5,-9.3 -0.2,-3 -0.2,-5.5 -0.2,-7.5 0,-5.2 0.6,-10.7 1.8,-16.3 1.2,-5.6 4.2,-10.4 9,-14.4 3.6,-2.9 7.6,-4.8 12,-5.6 4.4,-0.8 8.5,-1.2 12.3,-1.2 h 56.4 V 130 c 0,-2.1 -0.4,-4.7 -1.2,-7.9 -0.8,-3.1 -2,-5.6 -3.7,-7.6 -1.3,-1.6 -3.2,-3 -5.5,-4.2 -2.4,-1.1 -5.1,-1.7 -8.2,-1.7 h -63 V 97.1 Z m -41.5,63.8 c -3.8,0 -6.8,0.7 -9.2,2.2 -2.4,1.5 -4,2.9 -5,4.2 -1.6,2.1 -2.7,4.9 -3.3,8.2 -0.6,3.4 -0.9,7.3 -0.9,11.9 0,3.9 0.3,8 0.9,12.1 0.6,4.2 2,7.6 4.3,10.4 1.3,1.6 3.1,3 5.3,4.1 2.2,1.1 4.7,1.6 7.5,1.6 h 52.5 c 0.8,0 1.8,0 2.8,-0.1 1.1,-0.1 2,-0.5 2.8,-1.4 0.8,-0.8 1.3,-1.6 1.5,-2.2 0.2,-0.7 0.2,-1.4 0.2,-2.2 v -48.8 z" id="path70"></path>	<path fill="#3dafe4" d="m 1297,141.8 c 0,-6.7 0.7,-12.9 2.1,-18.5 1.4,-5.6 4.5,-10.8 9.4,-15.6 2.8,-2.6 6.6,-5 11.4,-7.2 4.8,-2.2 11.6,-3.3 20.5,-3.3 h 8.8 v 11.5 h -7.9 c -3.6,0 -7.8,0.5 -12.5,1.5 -4.7,1 -8.9,3.5 -12.5,7.6 -2.8,3.3 -4.6,7.3 -5.4,12 -0.8,4.7 -1.2,9.7 -1.2,15 v 82.4 H 1297 Z" id="path72"></path>	<path fill="#3dafe4" d="m 1464.9,216 c -0.5,2.7 -1.4,4.9 -2.7,6.5 -1.8,2.3 -4.1,3.6 -6.9,4.1 -2.8,0.4 -5.2,0.6 -7.4,0.6 h -40.5 c -3.3,0 -6.8,-0.3 -10.7,-0.9 -3.8,-0.6 -7.7,-1.8 -11.7,-3.6 -3.9,-1.8 -7.6,-4.4 -11,-7.8 -3.4,-3.4 -6.4,-8.1 -8.8,-14 -2.6,-6.2 -4.3,-13 -4.9,-20.4 -0.7,-7.4 -1,-14.6 -1,-21.8 0,-7.2 0.5,-14.4 1.5,-21.5 1,-7.1 3.8,-14 8.3,-20.7 2.9,-4.3 6.2,-7.6 9.8,-10.2 3.6,-2.5 7.4,-4.5 11.3,-5.9 3.9,-1.4 7.9,-2.3 11.8,-2.7 3.9,-0.4 7.7,-0.6 11.3,-0.6 h 39.5 V 55.4 h 12.8 v 152.8 c 0,2.5 -0.2,5.1 -0.7,7.8 z m -54.5,-107.3 c -2.4,0 -5.1,0.2 -7.8,0.5 -2.8,0.3 -5.6,1 -8.3,2.1 -2.8,1.1 -5.4,2.6 -8,4.5 -2.5,2 -4.8,4.5 -6.7,7.6 -2.3,3.8 -3.9,8.6 -4.9,14.5 -1,5.9 -1.5,13.5 -1.5,22.8 0,5.9 0.1,10.8 0.4,14.8 0.2,4 0.6,7.4 1,10.1 0.4,2.7 0.8,4.8 1.2,6.4 0.4,1.6 0.8,2.7 1.1,3.6 1.6,4.4 3.8,8 6.6,10.7 2.8,2.7 5.7,4.7 8.8,6.1 3.1,1.4 6.3,2.3 9.4,2.7 3.2,0.4 6.1,0.6 8.7,0.6 h 32.6 c 0.8,0 2.1,-0.1 3.8,-0.2 1.7,-0.2 3.1,-0.7 4.1,-1.7 0.8,-0.8 1.3,-2.2 1.6,-4.2 0.2,-2 0.4,-3.6 0.4,-4.9 v -95.9 h -42.5 z" id="path74"></path></g><g id="Icon" transform="matrix(0.79787382,0,0,0.79787382,-1.893691,31.137152)">	<polygon fill="#54beed" points="226.9,291.3 138,173.2 226.9,55.1 315.5,173.2 " id="polygon77"></polygon>	<polygon fill="#3dafe4" points="138,173.2 50,55.1 315.5,173.2 " id="polygon79"></polygon>	<polygon fill="#77cdf4" points="226.9,55.1 50,55.1 182.5,114.1 " id="polygon81"></polygon>	<polygon fill="#77cdf4" points="50,291.3 226.9,291.3 182.5,232.4 " id="polygon83"></polygon>	<polygon fill="#0c96d4" points="138,173.2 50,291.3 315.5,173.2 " id="polygon85"></polygon></g><g id="R" transform="translate(7.538243,25.025495)">	<path fill="#3dafe4" d="m 1489.3,73 c 0,-6.3 2.2,-11.8 6.7,-16.3 4.5,-4.5 9.9,-6.8 16.3,-6.8 6.4,0 11.8,2.3 16.3,6.8 4.5,4.5 6.7,9.9 6.7,16.3 0,6.4 -2.2,11.8 -6.7,16.3 -4.5,4.5 -9.9,6.7 -16.3,6.7 -6.4,0 -11.8,-2.2 -16.3,-6.7 -4.5,-4.5 -6.7,-9.9 -6.7,-16.3 z m 2.9,0 c 0,5.6 2,10.3 5.9,14.2 3.9,3.9 8.7,5.9 14.2,5.9 5.5,0 10.2,-2 14.2,-5.9 3.9,-3.9 5.9,-8.6 5.9,-14.2 0,-5.5 -2,-10.2 -5.9,-14.1 -3.9,-3.9 -8.6,-5.9 -14.2,-5.9 -5.6,0 -10.3,2 -14.2,5.9 -3.9,3.9 -5.9,8.6 -5.9,14.1 z m 11.2,13.2 V 60 h 9.7 c 2.9,0 5.2,0.7 6.9,2.1 1.7,1.4 2.5,3.3 2.5,5.9 0,2.1 -0.6,3.9 -1.7,5.1 -1.1,1.3 -2.5,2.1 -4.2,2.6 l 6.9,10.6 h -4.3 l -6.4,-10 h -5.9 v 10 h -3.5 z m 3.7,-13.4 h 5.9 c 3.9,0 5.9,-1.6 5.9,-4.8 0,-3.2 -2,-4.8 -6.1,-4.8 h -5.7 z" id="path88"></path>	<g id="g90">	</g>	<g id="g92">	</g>	<g id="g94">	</g>	<g id="g96">	</g>	<g id="g98">	</g>	<g id="g100">	</g></g></svg>